<?xml version="1.0" standalone="no"?>
<!DOCTYPE svg PUBLIC "-//W3C//DTD SVG 20010904//EN"
 "http://www.w3.org/TR/2001/REC-SVG-20010904/DTD/svg10.dtd">
<svg version="1.0" xmlns="http://www.w3.org/2000/svg"
 width="2000.000000pt" height="2000.000000pt" viewBox="0 0 2000.000000 2000.000000"
 preserveAspectRatio="xMidYMid meet">

<g transform="translate(0.000000,2000.000000) scale(0.100000,-0.100000)"
fill="#000000" stroke="none">
<path d="M6450 19909 c-493 -127 -692 -183 -746 -209 -81 -39 -163 -126 -194
-205 -32 -79 -31 -174 5 -623 15 -189 25 -345 24 -346 -2 -2 -85 -36 -184 -76
-193 -78 -227 -95 -291 -148 -49 -40 -72 -77 -90 -146 -21 -79 -18 -118 41
-465 45 -262 53 -327 43 -336 -7 -6 -74 -49 -148 -95 -176 -109 -242 -160
-289 -223 -50 -67 -61 -104 -61 -194 0 -82 15 -139 180 -693 l90 -305 -153
-150 c-528 -516 -782 -845 -1012 -1308 -178 -356 -281 -674 -384 -1177 -90
-443 -112 -655 -118 -1150 -10 -811 64 -1574 222 -2274 57 -255 179 -714 245
-925 145 -463 522 -1499 952 -2611 99 -256 207 -544 240 -640 116 -339 306
-797 415 -1000 116 -217 317 -530 470 -736 152 -203 264 -328 542 -603 208
-207 277 -269 317 -286 47 -22 54 -30 119 -142 217 -376 559 -855 846 -1185
207 -238 428 -435 809 -722 326 -246 506 -366 830 -553 344 -198 460 -251 655
-299 126 -30 184 -30 310 0 195 48 311 101 655 299 324 187 504 307 830 553
381 287 602 484 809 722 287 330 629 809 846 1185 65 112 72 120 119 142 40
17 109 79 317 286 278 275 390 400 542 603 153 206 354 519 470 736 109 203
299 661 415 1000 33 96 141 384 240 640 322 833 631 1669 816 2204 249 716
432 1452 511 2046 67 504 99 1039 92 1560 -6 495 -28 707 -118 1150 -103 503
-206 821 -384 1177 -230 463 -484 792 -1012 1308 l-153 150 90 305 c165 554
180 611 180 693 0 90 -11 127 -61 194 -47 63 -113 114 -289 223 -74 46 -141
89 -148 95 -10 9 -2 74 43 336 59 347 62 386 41 465 -18 69 -41 106 -90 146
-64 53 -98 70 -291 148 -99 40 -182 74 -184 76 -1 1 9 157 24 346 36 449 37
544 5 623 -31 79 -113 166 -194 205 -81 39 -874 250 -940 250 -42 0 -93 -33
-111 -72 -9 -18 -216 -949 -460 -2068 -245 -1119 -567 -2596 -717 -3282 l-273
-1246 -110 -6 c-620 -34 -2710 -34 -3330 0 l-110 6 -273 1246 c-150 686 -472
2163 -717 3282 -244 1119 -451 2050 -460 2068 -19 40 -69 72 -115 71 -19 0
-105 -18 -190 -40z m114 -236 c3 -10 78 -351 167 -758 88 -407 401 -1838 695
-3180 293 -1341 531 -2441 529 -2443 -2 -3 -107 -1 -232 4 l-228 9 -103 360
c-383 1343 -695 2377 -847 2811 -150 425 -365 982 -608 1574 l-150 365 -8 110
c-4 61 -19 256 -33 434 -30 376 -31 410 -12 456 29 67 49 75 596 219 113 30
210 54 217 55 6 1 14 -7 17 -16z m7121 -55 c476 -122 513 -136 541 -203 19
-46 18 -80 -12 -456 -14 -178 -29 -373 -33 -434 l-8 -110 -150 -365 c-243
-592 -458 -1149 -608 -1574 -152 -434 -464 -1468 -847 -2811 l-103 -360 -228
-9 c-125 -5 -230 -7 -232 -4 -2 2 236 1102 529 2443 294 1342 607 2773 695
3180 89 407 164 748 167 758 4 13 12 16 32 11 15 -4 131 -33 257 -66z m-7853
-1698 c321 -787 526 -1335 689 -1840 177 -546 827 -2755 815 -2767 -4 -4 -448
16 -453 20 -1 2 -352 887 -779 1968 -486 1232 -779 1985 -784 2019 -5 30 -20
118 -34 195 -48 267 -86 503 -86 540 0 74 8 79 285 191 179 73 180 73 191 51
7 -12 77 -182 156 -377z m8681 311 c229 -92 247 -105 247 -176 0 -37 -38 -273
-86 -540 -14 -77 -29 -165 -34 -195 -5 -34 -298 -787 -784 -2019 -427 -1081
-778 -1966 -779 -1968 -5 -4 -449 -24 -453 -20 -8 7 444 1564 651 2242 219
719 324 1022 588 1700 104 270 349 879 409 1017 l20 47 47 -18 c25 -10 104
-41 174 -70z m-8528 -2976 c415 -1050 752 -1911 750 -1914 -6 -5 -433 14 -439
20 -2 2 -273 542 -602 1199 -389 778 -600 1211 -605 1240 -4 25 -37 142 -74
260 -143 464 -226 764 -220 796 3 16 22 46 43 67 40 39 371 249 385 244 4 -1
348 -862 762 -1912z m8934 1808 c179 -111 238 -161 246 -207 6 -32 -75 -325
-220 -796 -37 -118 -70 -235 -74 -260 -5 -29 -216 -462 -605 -1240 -329 -657
-600 -1197 -602 -1199 -6 -6 -433 -25 -439 -20 -2 3 332 858 744 1900 411
1041 751 1902 754 1913 9 24 13 23 196 -91z m-8780 -3687 c1 -5 -59 -7 -141
-3 -134 5 -144 7 -160 29 -10 13 -120 163 -244 333 -125 171 -415 567 -646
882 -230 314 -418 577 -418 584 0 6 104 116 231 242 l232 231 573 -1144 c315
-630 573 -1149 573 -1154z m9142 1986 c82 -85 149 -158 149 -164 0 -5 -188
-267 -418 -581 -231 -315 -521 -711 -646 -882 -124 -170 -234 -320 -244 -333
-16 -22 -26 -24 -159 -29 -79 -3 -143 -3 -143 0 0 4 257 522 572 1151 l572
1144 84 -76 c46 -42 151 -145 233 -230z m-10280 -1032 c304 -415 585 -800 625
-854 69 -96 71 -101 57 -123 -13 -20 -15 -51 -9 -211 l7 -187 -49 50 c-27 28
-366 390 -752 805 -387 415 -723 776 -748 802 l-45 47 71 98 c101 141 273 346
282 336 5 -4 257 -348 561 -763z m10641 633 c58 -70 133 -168 168 -216 l63
-88 -45 -47 c-25 -26 -361 -387 -748 -802 -386 -415 -725 -777 -752 -805 l-49
-50 7 187 c6 160 4 191 -9 211 -14 22 -12 27 62 128 530 730 1185 1617 1191
1614 4 -2 54 -62 112 -132z m-10802 -1298 c446 -478 818 -875 826 -881 12 -9
16 -60 21 -255 l6 -244 -69 61 c-1199 1065 -1860 1657 -1862 1669 -7 31 240
529 260 523 4 -2 372 -394 818 -873z m11174 750 c84 -154 188 -381 184 -400
-2 -12 -663 -604 -1862 -1669 l-69 -61 6 240 6 240 53 57 c586 630 1604 1718
1608 1718 3 0 37 -56 74 -125z m-11379 -1359 c500 -445 945 -841 988 -879 l77
-69 0 -184 c0 -101 -3 -184 -6 -184 -7 0 -2103 1537 -2128 1561 -19 18 -19 20
-2 96 51 223 134 486 149 476 6 -4 421 -371 922 -817z m11695 589 c27 -93 56
-205 66 -248 17 -76 17 -78 -2 -96 -25 -24 -2121 -1561 -2128 -1561 -3 0 -6
83 -6 184 l0 184 78 69 c42 38 491 438 996 887 l919 818 14 -34 c8 -18 36
-109 63 -203z m-12374 -791 c230 -169 561 -412 734 -539 173 -127 461 -338
640 -469 395 -290 365 -265 340 -283 -10 -7 -56 -65 -101 -129 -57 -79 -87
-113 -97 -109 -8 3 -473 276 -1034 608 l-1020 602 6 71 c18 197 84 567 101
560 6 -2 200 -142 431 -312z m12512 202 c28 -144 60 -359 68 -450 l6 -71
-1020 -602 c-561 -332 -1026 -605 -1034 -608 -10 -4 -40 30 -97 109 -45 64
-91 122 -102 130 -24 17 -96 -39 586 461 231 170 596 437 810 595 215 157 471
346 570 418 99 73 182 132 186 132 3 0 16 -51 27 -114z m-9573 -341 c528 -18
932 -31 1485 -47 575 -17 2625 -17 3200 0 892 25 1865 59 1973 67 l67 5 0
-1032 c0 -1482 -18 -2659 -50 -3368 -35 -768 -167 -2861 -185 -2947 -3 -13
-15 -25 -28 -27 -37 -8 -1216 -65 -1877 -91 -1491 -58 -2120 -49 -4435 65
-231 12 -430 23 -442 26 -13 2 -25 14 -28 27 -18 86 -150 2179 -185 2947 -32
709 -50 1886 -50 3368 l0 1032 68 -5 c37 -3 256 -12 487 -20z m-2716 -776
c410 -243 855 -506 988 -585 l242 -144 -82 -124 c-45 -68 -87 -131 -92 -141
-9 -15 -118 36 -928 431 l-917 448 0 131 c0 73 3 200 7 284 5 127 9 151 21
146 8 -3 350 -204 761 -446z m12384 299 c4 -83 7 -210 7 -283 l0 -131 -917
-448 c-810 -395 -919 -446 -928 -431 -5 10 -47 73 -92 141 l-82 124 172 102
c783 465 1823 1078 1828 1078 3 0 9 -68 12 -152z m-12279 -992 c478 -234 870
-427 872 -429 4 -4 -120 -284 -130 -294 -6 -6 -1588 637 -1597 649 -6 9 -29
375 -29 456 0 23 4 42 8 42 5 0 399 -191 876 -424z m12276 382 c0 -81 -23
-447 -29 -456 -9 -12 -1591 -655 -1597 -649 -10 10 -134 290 -130 294 9 9
1732 851 1744 852 8 1 12 -14 12 -41z m-10836 -765 c4 -197 13 -574 20 -838
13 -455 13 -481 -4 -492 -10 -7 -65 -84 -122 -170 -317 -478 -438 -754 -527
-1208 -116 -585 -106 -1333 26 -1920 73 -326 186 -657 322 -940 149 -309 547
-978 647 -1085 15 -16 36 -71 59 -148 39 -134 109 -332 161 -456 19 -44 34
-83 34 -85 0 -3 -39 33 -86 79 -207 205 -426 491 -646 845 -160 257 -260 460
-410 835 -283 709 -437 1377 -479 2085 -13 219 -7 744 11 955 66 792 161 1245
370 1765 84 211 275 627 331 723 59 100 270 412 280 412 3 0 9 -161 13 -357z
m8641 197 c157 -228 204 -313 333 -600 283 -632 380 -947 461 -1505 58 -400
80 -670 88 -1075 12 -650 -43 -1123 -208 -1775 -107 -421 -370 -1101 -557
-1440 -166 -301 -404 -646 -613 -890 -74 -86 -249 -265 -249 -254 0 2 15 41
34 85 52 124 122 322 161 456 23 77 44 132 59 148 100 107 498 776 647 1085
136 283 249 614 322 940 132 587 142 1335 26 1920 -89 454 -210 730 -527 1208
-57 86 -112 163 -122 170 -17 11 -17 37 -4 492 7 264 16 641 20 838 4 196 10
357 13 357 3 0 56 -72 116 -160z m-10162 -346 c414 -169 755 -310 760 -313 4
-4 -17 -67 -48 -139 -30 -72 -55 -136 -55 -142 0 -6 -6 -13 -13 -15 -16 -7
-1348 430 -1357 445 -4 6 -14 82 -23 168 -26 236 -31 302 -23 302 4 0 345
-138 759 -306z m12314 234 c-16 -173 -41 -388 -47 -398 -9 -15 -1341 -452
-1357 -445 -7 2 -13 9 -13 15 0 6 -25 70 -55 142 -30 72 -52 134 -49 137 7 8
1506 620 1518 621 5 0 6 -32 3 -72z m-12352 -763 c347 -114 631 -208 633 -210
2 -2 -17 -66 -41 -142 -90 -275 -137 -482 -186 -816 -83 -566 -115 -1117 -91
-1590 7 -137 10 -250 8 -252 -11 -11 -501 1348 -613 1700 -126 397 -273 984
-339 1355 -30 166 -30 171 -13 165 6 -2 296 -97 642 -210z m12260 48 c-66
-372 -213 -959 -340 -1358 -112 -352 -602 -1711 -613 -1700 -2 2 1 115 8 252
24 473 -8 1024 -91 1590 -49 335 -96 541 -186 818 -36 109 -43 140 -32 144
208 74 1275 417 1277 411 2 -5 -9 -75 -23 -157z m-10616 -2273 c7 -151 21
-430 31 -620 11 -190 26 -518 35 -730 28 -724 36 -885 51 -1120 16 -255 46
-565 69 -718 8 -53 13 -97 12 -99 -5 -4 -222 367 -300 512 -154 287 -251 527
-341 840 -119 419 -160 741 -159 1275 0 489 52 853 173 1220 54 162 196 436
346 665 l39 60 16 -505 c10 -278 22 -629 28 -780z m8473 1150 c205 -331 287
-515 363 -820 79 -313 108 -581 108 -990 1 -534 -40 -856 -159 -1275 -90 -313
-187 -553 -341 -840 -78 -145 -295 -516 -300 -512 -1 2 4 46 12 99 23 153 53
463 69 718 15 235 23 400 51 1120 9 212 22 502 30 645 24 418 42 842 61 1433
14 417 21 549 30 540 6 -7 40 -60 76 -118z m-7262 -4225 c1078 -62 2314 -107
2960 -107 655 0 1677 37 2992 109 175 9 320 14 323 11 8 -7 -19 -202 -51 -378
-51 -275 -137 -572 -235 -813 -52 -125 -236 -504 -249 -512 -16 -10 -969 -52
-1700 -76 -195 -7 -681 -12 -1080 -12 -399 0 -885 5 -1080 12 -731 24 -1684
66 -1700 76 -13 8 -197 387 -249 512 -93 228 -181 526 -230 783 -18 95 -61
377 -61 400 0 13 61 13 360 -5z m830 -2145 c1444 -89 2296 -101 3450 -45 353
17 929 51 1109 65 68 6 126 9 127 7 5 -5 -120 -209 -199 -327 -140 -208 -301
-397 -566 -660 -220 -219 -380 -357 -581 -500 -239 -170 -817 -523 -1044 -638
-150 -76 -182 -76 -332 0 -227 115 -805 468 -1044 638 -201 143 -361 281 -581
500 -265 264 -427 452 -566 660 -65 97 -163 255 -193 309 l-12 23 59 -6 c32
-4 200 -15 373 -26z"/>
<path d="M12009 12523 c-244 -3 -289 -6 -300 -19 -18 -22 -27 -477 -9 -499 11
-13 54 -15 286 -15 151 0 275 -1 275 -2 1 -2 7 -1427 13 -3168 9 -2544 14
-3169 24 -3187 13 -23 14 -23 248 -23 153 0 243 4 256 11 l21 11 -7 2187 c-3
1202 -9 2628 -12 3169 l-7 982 296 0 c272 0 297 1 306 18 5 9 10 129 12 265 4
237 3 249 -15 263 -20 14 -423 16 -1387 7z"/>
<path d="M7097 12480 c-383 -4 -449 -7 -457 -20 -6 -9 -10 -562 -10 -1445 0
-1279 2 -1433 16 -1453 15 -22 15 -22 348 -22 l334 0 6 -602 c3 -332 7 -1106
9 -1722 l2 -1119 -267 5 c-220 4 -271 2 -288 -9 -19 -13 -20 -25 -20 -229 0
-201 1 -215 20 -234 19 -19 33 -20 530 -20 510 0 510 0 532 22 l21 21 -6 2181
c-6 1883 -9 2182 -21 2194 -12 12 -61 15 -283 13 -147 -1 -294 -4 -327 -8
l-59 -6 7 689 c3 379 9 809 12 957 l6 267 255 0 c156 0 262 4 274 10 18 10 19
24 19 253 0 133 -4 247 -8 253 -16 24 -54 34 -124 32 -40 -2 -275 -5 -521 -8z"/>
<path d="M10080 12430 c-13 -8 -14 -427 -11 -3456 2 -1896 5 -3453 8 -3460 8
-22 29 -24 272 -31 209 -5 238 -4 252 10 21 21 27 422 35 2550 l7 1578 271 -7
c149 -4 272 -7 273 -8 2 -1 8 -906 14 -2012 8 -1498 14 -2012 22 -2021 15 -16
50 -17 293 -15 149 1 205 5 218 15 18 13 19 93 17 2223 -2 1215 -6 2427 -11
2694 -8 466 -9 490 -34 606 -32 150 -74 274 -133 384 -130 248 -478 691 -652
832 -97 78 -145 104 -220 118 -67 13 -601 13 -621 0z m737 -815 c126 -146 199
-257 291 -444 l77 -155 -3 -351 c-1 -192 -5 -387 -8 -432 l-6 -82 -262 6
c-143 3 -263 7 -265 9 -2 1 0 368 4 814 l8 811 34 -33 c20 -18 78 -82 130
-143z"/>
<path d="M8357 12409 c-22 -31 -12 -6742 9 -6776 l14 -23 570 0 c504 0 570 2
584 16 14 13 16 50 16 245 0 140 -4 238 -10 250 -10 18 -25 19 -330 19 l-320
0 0 1725 0 1725 269 0 c215 0 271 3 280 14 7 8 14 92 18 232 6 206 5 221 -13
238 -17 18 -34 19 -286 13 l-268 -5 0 821 c0 452 3 859 7 905 l6 82 272 0
c259 0 273 1 290 20 15 17 19 50 26 247 7 195 6 231 -6 250 l-15 23 -550 0
c-545 0 -549 0 -563 -21z"/>
<path d="M12455 4730 c-60 -4 -118 -11 -127 -15 -30 -12 -57 -86 -68 -185 -13
-118 -30 -522 -23 -534 8 -13 184 -1 193 14 4 6 10 62 14 123 4 61 10 115 14
118 4 4 50 9 102 11 l94 3 18 -105 c28 -167 14 -150 119 -150 71 0 91 3 95 15
8 20 -42 451 -62 533 -8 35 -24 84 -36 109 -35 74 -66 80 -333 63z m174 -197
c16 -56 14 -100 -5 -107 -9 -3 -50 -6 -91 -6 l-75 0 4 61 c6 76 20 89 99 89
l58 0 10 -37z"/>
<path d="M11810 4705 c-10 -12 -11 -89 -6 -358 4 -188 11 -346 15 -350 4 -4
59 -6 122 -5 l114 3 -4 345 c-2 240 -7 348 -15 356 -6 6 -57 14 -112 18 -84 5
-104 3 -114 -9z"/>
<path d="M7243 4699 c-10 -10 -13 -90 -13 -328 0 -174 4 -321 8 -327 23 -36
65 -42 309 -45 166 -3 245 -1 253 7 7 7 10 46 8 105 l-3 94 -174 3 -174 2 7
240 c4 153 3 241 -4 245 -5 3 -53 8 -107 11 -74 5 -101 3 -110 -7z"/>
<path d="M8016 4674 c-3 -9 -6 -163 -6 -343 0 -241 3 -330 12 -339 17 -17 212
-16 225 1 10 13 -1 669 -12 687 -4 6 -50 10 -110 10 -85 0 -104 -3 -109 -16z"/>
<path d="M10620 4683 c-46 -17 -50 -30 -50 -177 l-1 -141 -153 158 c-153 157
-153 157 -199 157 -28 0 -52 -6 -65 -17 -20 -17 -21 -28 -24 -371 -2 -303 0
-354 12 -362 8 -5 54 -10 102 -10 120 0 118 -3 118 173 l1 142 86 -95 c48 -52
115 -123 148 -157 61 -63 62 -63 118 -63 54 0 59 2 77 33 19 31 20 47 18 365
l-3 334 -24 19 c-17 14 -38 19 -85 18 -33 0 -68 -3 -76 -6z"/>
<path d="M11196 4666 c-74 -32 -110 -65 -146 -141 -95 -194 -33 -426 135 -512
68 -35 182 -42 305 -18 50 10 98 24 106 32 15 16 20 158 6 181 -7 10 -28 9
-105 -4 -146 -25 -222 -5 -267 68 -41 67 -15 172 50 205 30 15 161 17 244 3
81 -13 86 -8 86 100 0 74 -3 89 -17 95 -10 4 -90 9 -178 12 -153 4 -163 3
-219 -21z"/>
<path d="M8765 4670 c-125 -23 -204 -79 -249 -180 -35 -77 -46 -149 -35 -227
29 -201 123 -287 332 -299 108 -7 244 13 265 39 5 7 11 48 13 92 l4 79 -135 1
c-161 0 -211 17 -248 84 -33 59 -29 103 14 150 49 55 84 64 233 60 l126 -4 3
92 3 92 -38 11 c-50 15 -225 21 -288 10z"/>
<path d="M9316 4657 c-17 -12 -18 -33 -14 -318 3 -217 8 -311 17 -330 7 -14
31 -38 54 -52 l42 -27 255 2 255 3 3 91 3 91 -113 6 c-62 4 -150 7 -195 7
l-83 0 0 33 0 34 107 6 c58 4 137 7 175 7 81 0 82 1 82 105 l1 70 -150 6 c-82
4 -167 7 -187 8 -37 1 -38 2 -38 41 l0 40 198 2 197 3 3 93 3 92 -299 0 c-231
0 -302 -3 -316 -13z"/>
<path d="M8616 3814 l-39 -26 7 -181 c10 -291 18 -396 30 -412 7 -10 37 -17
94 -22 l82 -6 1 67 c1 36 3 71 4 76 1 6 3 24 4 41 l1 31 148 -3 147 -4 0 80 0
80 -115 6 c-63 4 -130 7 -147 8 -32 1 -33 2 -33 44 l0 43 205 -4 206 -5 -3
104 -3 104 -275 2 -275 2 -39 -25z"/>
<path d="M9504 3829 c-7 -12 5 -679 13 -691 2 -5 51 -8 108 -8 l104 0 6 33 c3
17 4 176 3 352 l-3 320 -112 3 c-76 2 -114 -1 -119 -9z"/>
<path d="M10906 3828 c-9 -26 -16 -176 -10 -192 5 -13 25 -16 125 -16 l119 0
0 -197 c0 -109 3 -207 6 -219 5 -19 15 -22 94 -27 49 -4 96 -4 105 -1 13 5 15
37 15 226 l0 221 94 -5 c52 -3 99 -2 105 2 6 3 14 50 18 103 l6 96 -27 11
c-42 16 -646 14 -650 -2z"/>
<path d="M10210 3782 c-25 -12 -39 -28 -47 -54 -13 -39 -47 -492 -41 -549 l3
-34 80 3 c44 2 85 9 91 15 6 7 16 54 22 106 6 51 13 95 14 97 2 1 42 6 89 10
l86 6 16 -107 c9 -59 19 -111 23 -116 6 -11 161 -12 167 -1 5 8 -19 413 -28
482 -11 76 -40 129 -79 145 -55 23 -349 21 -396 -3z m274 -154 c9 -12 16 -39
16 -60 l0 -38 -81 0 -81 0 7 53 c4 28 13 55 19 59 6 4 32 8 58 8 37 0 50 -5
62 -22z"/>
</g>
</svg>
