<?xml version="1.0" standalone="no"?>
<!DOCTYPE svg PUBLIC "-//W3C//DTD SVG 20010904//EN"
 "http://www.w3.org/TR/2001/REC-SVG-20010904/DTD/svg10.dtd">
<svg version="1.0" xmlns="http://www.w3.org/2000/svg"
 width="5000.000000pt" height="2000.000000pt" viewBox="0 0 5000.000000 2000.000000"
 preserveAspectRatio="xMidYMid meet">

<g transform="translate(0.000000,2000.000000) scale(0.100000,-0.100000)"
fill="#000000" stroke="none">
<path d="M46230 16313 c-63 -1 -358 -7 -655 -13 -297 -6 -886 -20 -1309 -30
-836 -21 -799 -17 -829 -78 -8 -15 -195 -515 -416 -1112 -221 -597 -850 -2298
-1399 -3780 l-997 -2695 -475 -43 c-1614 -145 -3371 -302 -3381 -302 -6 0 22
35 62 78 100 107 153 181 209 292 112 225 185 427 618 1725 662 1978 903 2732
990 3095 54 225 57 252 56 480 0 236 -12 306 -71 427 -93 190 -365 341 -713
395 -112 17 -738 17 -955 0 -430 -35 -591 -84 -787 -241 -178 -142 -314 -320
-475 -621 -84 -156 -233 -582 -616 -1755 -613 -1880 -930 -2902 -958 -3095
-16 -111 -16 -443 0 -545 26 -168 90 -312 178 -400 31 -30 51 -55 45 -55 -5 0
-403 -36 -883 -80 -480 -43 -874 -78 -876 -77 -1 2 20 20 48 41 75 58 209 195
282 288 142 182 298 448 368 628 139 353 782 2370 1197 3755 136 453 167 564
210 755 64 283 76 361 75 515 0 417 -137 655 -464 810 -95 44 -254 95 -364
115 -112 20 -401 29 -627 20 -531 -23 -766 -90 -1043 -300 -158 -120 -330
-314 -402 -454 -106 -208 -702 -1925 -1367 -3936 -335 -1016 -476 -1457 -517
-1615 -39 -153 -48 -291 -25 -389 31 -130 126 -304 222 -403 24 -26 43 -47 41
-48 -3 -3 -1679 -156 -1702 -155 -15 0 -2 16 48 61 164 148 288 358 445 754
314 787 786 2238 888 2725 32 152 33 340 4 454 -52 205 -195 347 -459 456
-167 69 -245 77 -795 90 -245 6 -436 15 -447 21 -44 23 -38 52 88 454 130 416
301 872 414 1102 95 193 199 286 358 318 182 37 572 26 661 -18 70 -34 68 -52
-39 -389 -50 -156 -97 -310 -106 -343 -31 -120 -13 -220 43 -249 57 -30 328
-56 572 -56 114 0 142 4 180 21 116 52 171 152 314 567 106 309 129 425 115
572 -17 166 -78 312 -193 457 -179 226 -461 339 -932 373 -224 17 -709 8 -829
-15 -302 -56 -590 -203 -756 -383 -156 -170 -171 -203 -505 -1127 -297 -817
-1605 -4556 -1747 -4990 -71 -216 -81 -274 -81 -470 -1 -131 2 -170 18 -215
51 -149 144 -274 264 -355 l62 -42 -117 -12 c-65 -6 -712 -67 -1438 -136 -726
-69 -1975 -188 -2775 -265 -800 -77 -1549 -149 -1665 -160 -115 -11 -223 -22
-239 -25 -26 -5 -28 -3 -21 23 25 105 2104 7275 2219 7653 45 150 49 155 133
162 37 4 239 7 448 7 230 0 395 4 417 10 49 14 96 62 125 130 54 121 263 889
263 966 0 51 -21 108 -53 142 -46 49 -61 52 -304 52 -418 0 -2395 -56 -2811
-79 -144 -8 -156 -11 -199 -37 -95 -59 -109 -94 -197 -464 -72 -307 -106 -480
-106 -545 0 -71 33 -150 75 -183 57 -45 77 -46 553 -34 246 6 461 8 477 5 41
-8 75 -41 75 -73 0 -53 -285 -1008 -1210 -4050 -1108 -3645 -1094 -3601 -1119
-3715 -11 -48 -21 -88 -23 -89 -4 -4 -952 -95 -955 -92 -1 1 20 59 48 129 255
646 1228 3614 1718 5244 139 462 171 673 171 1137 0 474 -33 707 -156 1116
-123 408 -272 701 -487 955 -198 235 -404 394 -640 495 -180 76 -317 100 -572
100 -209 0 -542 -24 -610 -44 -69 -21 -139 -68 -169 -113 -34 -52 -416 -1239
-1684 -5223 -888 -2789 -1243 -3916 -1279 -4057 -14 -57 -28 -103 -32 -103 -3
0 -188 -18 -410 -40 -223 -22 -406 -38 -409 -36 -2 3 47 153 108 335 61 181
114 354 117 384 7 69 -20 133 -72 173 -34 26 -44 28 -114 27 -43 -1 -347 -29
-677 -62 -794 -80 -1004 -99 -1159 -107 l-130 -6 -45 29 c-25 16 -54 46 -65
66 -23 43 -23 42 67 337 184 606 945 2913 1265 3839 14 40 37 87 52 102 l26
28 560 16 c1080 29 1461 46 1540 66 80 22 116 67 179 227 120 308 226 646 226
720 0 70 -43 123 -124 157 -51 21 -252 19 -961 -10 -330 -14 -710 -28 -845
-31 -234 -6 -246 -6 -269 13 l-24 20 90 269 c142 421 517 1462 594 1650 16 39
41 82 54 94 l25 23 867 8 c478 5 926 13 996 18 191 15 222 38 312 237 52 113
161 441 196 587 20 87 22 104 11 154 -16 78 -58 143 -111 172 l-42 23 -387 -1
c-638 -2 -2062 -41 -2572 -72 -196 -11 -242 -25 -318 -93 -75 -68 -97 -116
-237 -537 -531 -1584 -2515 -7692 -2808 -8644 -79 -256 -112 -422 -103 -517
l6 -67 -42 -6 c-52 -7 -651 -65 -672 -65 -13 0 -10 14 13 78 111 300 1459
4456 1825 5625 158 504 179 581 172 631 -15 100 -87 203 -162 232 -40 15 -73
16 -307 11 -144 -4 -464 -16 -712 -27 -247 -11 -527 -20 -622 -20 l-172 0 -35
34 c-26 24 -36 42 -36 64 0 56 232 708 509 1430 211 550 219 565 296 582 38 8
296 15 1471 40 264 6 495 15 513 20 92 26 126 83 244 410 113 314 144 413 161
518 23 140 -2 209 -83 232 -90 25 -1593 -8 -2746 -60 -388 -18 -455 -49 -539
-249 -131 -311 -784 -2054 -1138 -3036 -182 -506 -278 -794 -278 -837 0 -95
85 -224 178 -270 46 -22 53 -23 306 -21 143 2 426 9 630 18 970 39 1013 40
1041 21 52 -34 67 23 -217 -846 -296 -910 -981 -2937 -1166 -3452 -98 -273
-115 -286 -437 -317 -207 -20 -650 -56 -1305 -106 -327 -25 -677 -59 -729 -72
-48 -11 -119 -52 -155 -89 -70 -72 -123 -227 -220 -639 -39 -164 -69 -272 -77
-277 -8 -4 -662 -70 -1454 -148 -932 -91 -1451 -146 -1472 -155 -18 -8 -40
-26 -49 -41 -24 -35 -390 -1285 -564 -1919 -76 -278 -91 -370 -70 -410 19 -36
69 -55 143 -55 77 0 37 -5 1582 200 4138 549 6463 846 8590 1094 2930 343
7424 829 14420 1560 4457 466 6465 668 14560 1467 5556 547 7258 718 7528 755
93 13 137 60 167 179 87 340 230 1163 230 1320 0 75 -27 137 -72 166 -31 19
-42 20 -168 14 -351 -16 -2230 -167 -3915 -315 -120 -10 -220 -18 -221 -17 -1
1 63 173 142 382 211 557 217 574 212 659 -4 90 -29 128 -107 164 -97 45 -8
50 -1357 -74 -346 -32 -637 -55 -646 -51 -15 5 -15 12 -4 59 19 79 727 1839
806 2003 49 102 71 123 145 135 31 5 393 16 804 24 410 9 784 18 830 21 156
11 232 58 310 189 36 60 191 452 262 661 38 111 40 123 30 162 -19 68 -46 91
-126 108 -97 20 -128 20 -877 -20 -365 -19 -730 -36 -813 -37 l-150 -3 2 57
c1 44 20 104 84 270 150 389 520 1312 541 1350 l21 36 91 6 c50 3 467 13 926
21 858 17 946 21 1040 49 66 20 77 28 117 86 53 79 90 161 176 401 136 375
149 421 150 524 2 102 -8 125 -73 170 -80 56 -80 56 -430 48z m-28319 -2100
c52 -27 126 -70 166 -96 184 -122 331 -359 385 -617 25 -118 20 -239 -16 -425
-31 -155 -141 -560 -160 -590 -13 -20 -26 -21 -352 -33 -187 -7 -416 -12 -510
-12 -184 0 -184 0 -184 53 0 21 47 175 212 697 222 705 344 1070 357 1070 4 0
50 -21 102 -47z m15710 -357 c161 -26 182 -55 155 -215 -15 -86 -136 -476
-271 -871 -31 -91 -126 -370 -210 -620 -519 -1539 -1081 -3165 -1122 -3243
-20 -40 -79 -103 -117 -127 -61 -37 -548 -103 -779 -104 -159 -1 -167 3 -167
84 0 105 42 252 356 1260 416 1330 1061 3221 1232 3610 46 106 150 201 235
215 157 27 552 33 688 11z m3930 -63 c43 -17 86 -61 95 -99 18 -72 -114 -606
-311 -1254 -296 -977 -697 -2262 -872 -2795 -126 -385 -184 -475 -334 -519
-57 -17 -583 -91 -717 -101 -85 -7 -112 2 -144 45 -18 25 -18 27 12 145 75
290 455 1576 637 2155 188 599 563 1710 725 2149 97 260 120 280 342 292 213
11 519 2 567 -18z m-19617 -2419 c13 -35 4 -94 -35 -223 -106 -353 -260 -849
-1002 -3221 -347 -1108 -403 -1289 -442 -1441 -19 -72 -36 -133 -38 -135 -8
-8 -1182 -120 -1185 -114 -1 4 21 74 49 156 129 371 454 1387 1019 3179 369
1169 514 1626 543 1710 23 65 47 73 253 85 268 15 288 16 570 18 231 2 263 0
268 -14z m10814 -238 c150 -26 172 -46 157 -144 -24 -172 -168 -628 -473
-1507 -255 -734 -319 -903 -377 -1000 -56 -92 -98 -122 -200 -140 -165 -28
-479 -59 -735 -71 l-145 -7 -34 29 c-66 55 -70 108 -17 227 13 29 29 71 36 92
16 51 462 1246 610 1635 205 539 312 803 337 828 35 35 108 63 187 72 117 14
548 4 654 -14z"/>
</g>
</svg>
